<svg width="36" height="36" viewBox="0 0 36 36" fill="none" xmlns="http://www.w3.org/2000/svg">
<path opacity="0.4" d="M24.285 3H11.73C6.27001 3 3.01501 6.255 3.01501 11.715V24.27C3.01501 29.73 6.27001 32.985 11.73 32.985H24.285C29.745 32.985 33 29.73 33 24.27V11.715C33 6.255 29.745 3 24.285 3Z" fill="#475443"/>
<path d="M25.5 23.955C23.535 23.955 21.66 23.055 20.16 21.39C21.645 19.485 22.605 17.13 22.815 14.55H25.485C26.1 14.55 26.61 14.04 26.61 13.425C26.61 12.81 26.1 12.3 25.485 12.3H21.84C21.81 12.3 21.78 12.285 21.75 12.285C21.72 12.285 21.69 12.3 21.66 12.3H19.125V10.905C19.125 10.29 18.615 9.77997 18 9.77997C17.385 9.77997 16.875 10.29 16.875 10.905V12.3H10.515C9.90001 12.3 9.39001 12.81 9.39001 13.425C9.39001 14.04 9.90001 14.55 10.515 14.55H18H20.55C19.995 19.83 15.705 23.955 10.485 23.955C9.86999 23.955 9.35999 24.465 9.35999 25.08C9.35999 25.695 9.86999 26.205 10.485 26.205C13.59 26.205 16.425 25.005 18.6 23.04C20.505 25.08 22.92 26.205 25.485 26.205C26.1 26.205 26.61 25.695 26.61 25.08C26.61 24.465 26.115 23.955 25.5 23.955Z" fill="#475443"/>
</svg>
