<svg width="36" height="36" viewBox="0 0 36 36" fill="none" xmlns="http://www.w3.org/2000/svg">
<path opacity="0.4" d="M18 7.95001V31.995C17.745 31.995 17.475 31.95 17.265 31.83L17.205 31.8C14.325 30.225 9.3 28.575 6.045 28.14L5.61 28.08C4.17 27.9 3 26.55 3 25.11V6.99001C3 5.20501 4.455 3.85501 6.24 4.00501C9.39 4.26001 14.16 5.85001 16.83 7.51501L17.205 7.74001C17.43 7.87501 17.715 7.95001 18 7.95001Z" fill="#475443"/>
<path d="M33 7.00501V25.11C33 26.55 31.83 27.9 30.39 28.08L29.895 28.14C26.625 28.575 21.585 30.24 18.705 31.83C18.51 31.95 18.27 31.995 18 31.995V7.95001C18.285 7.95001 18.57 7.87501 18.795 7.74001L19.05 7.57501C21.72 5.89501 26.505 4.29001 29.655 4.02001H29.745C31.53 3.87001 33 5.20501 33 7.00501Z" fill="#475443"/>
<path d="M11.625 13.86H8.25C7.635 13.86 7.125 13.35 7.125 12.735C7.125 12.12 7.635 11.61 8.25 11.61H11.625C12.24 11.61 12.75 12.12 12.75 12.735C12.75 13.35 12.24 13.86 11.625 13.86Z" fill="#475443"/>
<path d="M12.75 18.36H8.25C7.635 18.36 7.125 17.85 7.125 17.235C7.125 16.62 7.635 16.11 8.25 16.11H12.75C13.365 16.11 13.875 16.62 13.875 17.235C13.875 17.85 13.365 18.36 12.75 18.36Z" fill="#475443"/>
</svg>
