<svg width="36" height="36" viewBox="0 0 36 36" fill="none" xmlns="http://www.w3.org/2000/svg">
<path opacity="0.4" d="M25.38 33C21.18 33 17.76 29.595 17.76 25.38C17.76 21.18 21.165 17.76 25.38 17.76C29.58 17.76 33 21.165 33 25.38C33 29.595 29.595 33 25.38 33Z" fill="#475443"/>
<path opacity="0.4" d="M7.53001 3H13.41C16.515 3 18.015 4.49998 17.94 7.52998V13.41C18.015 16.515 16.515 18.015 13.41 17.94H7.53001C4.50001 18 3 16.5 3 13.395V7.51501C3 4.50001 4.50001 3 7.53001 3Z" fill="#475443"/>
<path d="M13.515 12.39C13.05 12.39 12.615 12.21 12.21 11.91C12.585 11.31 12.855 10.635 12.99 9.89999H13.5C14.115 9.89999 14.625 9.38999 14.625 8.77499C14.625 8.15999 14.115 7.64999 13.5 7.64999H12.015C12 7.64999 11.985 7.64999 11.985 7.64999H11.955H11.565C11.505 7.07999 11.04 6.63 10.455 6.63C9.87003 6.63 9.40502 7.07999 9.34502 7.64999H7.41003C6.79503 7.64999 6.28503 8.15999 6.28503 8.77499C6.28503 9.38999 6.79503 9.89999 7.41003 9.89999H10.665C10.215 11.34 8.92502 12.39 7.39502 12.39C6.78002 12.39 6.27002 12.9 6.27002 13.515C6.27002 14.13 6.78002 14.64 7.39502 14.64C8.61002 14.64 9.73503 14.235 10.665 13.56C11.49 14.25 12.48 14.64 13.5 14.64C14.115 14.64 14.625 14.13 14.625 13.515C14.625 12.9 14.13 12.39 13.515 12.39Z" fill="#475443"/>
<path d="M13.5 34.125C7.095 34.125 1.875 28.905 1.875 22.5C1.875 21.885 2.385 21.375 3 21.375C3.615 21.375 4.125 21.885 4.125 22.5C4.125 26.94 7.215 30.66 11.37 31.635L10.965 30.96C10.65 30.42 10.815 29.73 11.355 29.415C11.88 29.1 12.585 29.265 12.9 29.805L14.475 32.43C14.685 32.775 14.685 33.21 14.49 33.555C14.28 33.9 13.905 34.125 13.5 34.125Z" fill="#475443"/>
<path d="M33 14.625C32.385 14.625 31.875 14.115 31.875 13.5C31.875 9.06 28.785 5.34001 24.63 4.36501L25.035 5.03998C25.35 5.57998 25.185 6.27002 24.645 6.58502C24.12 6.90002 23.415 6.73501 23.1 6.19501L21.525 3.57001C21.315 3.22501 21.315 2.79001 21.51 2.44501C21.705 2.08501 22.08 1.875 22.485 1.875C28.89 1.875 34.11 7.095 34.11 13.5C34.125 14.115 33.615 14.625 33 14.625Z" fill="#475443"/>
<path d="M29.5949 27.495L26.3849 21.09C26.1899 20.715 25.7999 20.46 25.3799 20.46C24.9599 20.46 24.5699 20.7 24.3749 21.075L21.1649 27.48C20.8799 28.035 21.1049 28.71 21.6749 28.995C21.8399 29.07 22.0049 29.115 22.1699 29.115C22.5749 29.115 22.9799 28.89 23.1749 28.5L23.4299 27.99H27.315L27.57 28.5C27.855 29.055 28.5299 29.28 29.0849 29.01C29.6549 28.725 29.8799 28.05 29.5949 27.495ZM24.5699 25.74L25.3949 24.105L26.2199 25.74H24.5699Z" fill="#475443"/>
</svg>
